<svg id="visual" viewBox="0 0 900 600" width="900" height="600" xmlns="http://www.w3.org/2000/svg" xmlns:xlink="http://www.w3.org/1999/xlink" version="1.1"><rect x="0" y="0" width="900" height="600" fill="#0f172a"></rect><path d="M515 600L515.2 595.5C515.3 591 515.7 582 549.2 572.8C582.7 563.7 649.3 554.3 680.5 545.2C711.7 536 707.3 527 698.5 518C689.7 509 676.3 500 649.7 491C623 482 583 473 574.8 463.8C566.7 454.7 590.3 445.3 596.3 436.2C602.3 427 590.7 418 581.2 409C571.7 400 564.3 391 551.3 382C538.3 373 519.7 364 505 354.8C490.3 345.7 479.7 336.3 519.3 327.2C559 318 649 309 646.7 300C644.3 291 549.7 282 541.7 272.8C533.7 263.7 612.3 254.3 653.7 245.2C695 236 699 227 692.7 218C686.3 209 669.7 200 659 191C648.3 182 643.7 173 615.5 163.8C587.3 154.7 535.7 145.3 538 136.2C540.3 127 596.7 118 628.3 109C660 100 667 91 655.5 82C644 73 614 64 610.2 54.8C606.3 45.7 628.7 36.3 650.5 27.2C672.3 18 693.7 9 704.3 4.5L715 0L900 0L900 4.5C900 9 900 18 900 27.2C900 36.3 900 45.7 900 54.8C900 64 900 73 900 82C900 91 900 100 900 109C900 118 900 127 900 136.2C900 145.3 900 154.7 900 163.8C900 173 900 182 900 191C900 200 900 209 900 218C900 227 900 236 900 245.2C900 254.3 900 263.7 900 272.8C900 282 900 291 900 300C900 309 900 318 900 327.2C900 336.3 900 345.7 900 354.8C900 364 900 373 900 382C900 391 900 400 900 409C900 418 900 427 900 436.2C900 445.3 900 454.7 900 463.8C900 473 900 482 900 491C900 500 900 509 900 518C900 527 900 536 900 545.2C900 554.3 900 563.7 900 572.8C900 582 900 591 900 595.5L900 600Z" fill="#253968" stroke-linecap="round" stroke-linejoin="miter"></path></svg>