<svg xmlns="http://www.w3.org/2000/svg" viewBox="0 0 1440 320"><path fill="#1e293b" fill-opacity="1" d="M0,128L13.3,154.7C26.7,181,53,235,80,245.3C106.7,256,133,224,160,224C186.7,224,213,256,240,240C266.7,224,293,160,320,154.7C346.7,149,373,203,400,192C426.7,181,453,107,480,80C506.7,53,533,75,560,74.7C586.7,75,613,53,640,74.7C666.7,96,693,160,720,160C746.7,160,773,96,800,101.3C826.7,107,853,181,880,208C906.7,235,933,213,960,170.7C986.7,128,1013,64,1040,64C1066.7,64,1093,128,1120,149.3C1146.7,171,1173,149,1200,138.7C1226.7,128,1253,128,1280,154.7C1306.7,181,1333,235,1360,213.3C1386.7,192,1413,96,1427,48L1440,0L1440,320L1426.7,320C1413.3,320,1387,320,1360,320C1333.3,320,1307,320,1280,320C1253.3,320,1227,320,1200,320C1173.3,320,1147,320,1120,320C1093.3,320,1067,320,1040,320C1013.3,320,987,320,960,320C933.3,320,907,320,880,320C853.3,320,827,320,800,320C773.3,320,747,320,720,320C693.3,320,667,320,640,320C613.3,320,587,320,560,320C533.3,320,507,320,480,320C453.3,320,427,320,400,320C373.3,320,347,320,320,320C293.3,320,267,320,240,320C213.3,320,187,320,160,320C133.3,320,107,320,80,320C53.3,320,27,320,13,320L0,320Z"></path></svg>