<?xml version="1.0" encoding="UTF-8"?><svg version="1.1" id="Layer_1" xmlns="http://www.w3.org/2000/svg" xmlns:xlink="http://www.w3.org/1999/xlink" x="0px" y="0px" viewBox="0 0 1000 1000" enable-background="new 0 0 1000 1000" xml:space="preserve" width="1000px" height="1000px">
<g>
	<g id="Layer_1_1_">
		<path fill="#FF6550" d="M801.955,613.817L801.955,613.817c-26.724,0.2-46.7-12.809-63.317-30.93
			c-3.537-4.227-6.577-8.847-9.061-13.767c-14.15-27.108-18.264-58.345-11.616-88.192c10.722-49.018,34.122-136.811,74.764-201.014
			c3.243-5.098,10.005-6.601,15.103-3.357c1.351,0.86,2.497,2.006,3.357,3.357c40.641,64.2,64.042,152,74.764,201.013
			c6.648,29.848,2.534,61.085-11.616,88.193c-2.484,4.92-5.524,9.54-9.061,13.767C848.658,601.008,828.679,614.02,801.955,613.817z"/>
		<path opacity="0.4" fill="#FF7364" enable-background="new    " d="M884.949,480.927c-10.722-49.018-34.123-136.81-74.764-201.013
			c-3.042-4.782-9.231-6.452-14.265-3.849c3.977,3.272,7.199,7.366,9.444,12c31.06,63.435,50.005,136.013,59.6,179.93
			c7.157,32.271,2.788,66.029-12.35,95.414c-2.799,5.641-6.25,10.934-10.283,15.77c-15.631,17.05-34,29.951-57.439,33.063
			c5.282,1.096,10.667,1.622,16.061,1.57l0,0c26.724,0.2,46.7-12.809,63.317-30.93c3.537-4.227,6.577-8.847,9.061-13.767
			C887.48,542.008,891.595,510.773,884.949,480.927z"/>
		<path fill="#00233A" d="M802.566,618.819c-0.2,0-0.406,0-0.611,0s-0.408,0-0.611,0c-24.591,0-46.312-10.652-66.391-32.553
			c-0.023-0.026-0.046-0.051-0.068-0.077c-3.8-4.521-7.065-9.465-9.731-14.735c-14.692-28.155-18.969-60.594-12.078-91.595
			c10.42-47.634,34.075-137.3,75.425-202.619c4.719-7.43,14.568-9.628,21.999-4.909c1.977,1.256,3.654,2.932,4.909,4.909
			c41.353,65.325,65.005,154.987,75.424,202.619c6.893,31.001,2.616,63.44-12.078,91.594c-2.665,5.271-5.93,10.215-9.73,14.736
			c-0.022,0.026-0.045,0.051-0.068,0.077C848.879,608.166,827.155,618.819,802.566,618.819z M801.955,608.819h0.038
			c0.2,0,0.394,0,0.59,0c21.9,0,40.655-9.313,58.967-29.271c3.262-3.923,6.067-8.204,8.361-12.761
			c13.592-26.065,17.541-56.094,11.152-84.787c-10.277-46.989-33.571-135.378-74.1-199.408c-1.767-2.764-5.44-3.573-8.204-1.806
			c-0.726,0.464-1.342,1.08-1.806,1.806c-40.529,64.024-63.825,152.417-74.1,199.408c-6.39,28.693-2.442,58.721,11.147,84.787
			c2.295,4.557,5.1,8.838,8.362,12.761c18.311,19.957,37.067,29.271,58.967,29.271c0.2,0,0.393,0,0.59,0H801.955z"/>
		<path fill="#00233A" d="M801.959,561.994c-2.761,0.002-5.002-2.234-5.004-4.996c-0.001-1.609,0.771-3.12,2.076-4.06l42.076-30.328
			c2.241-1.615,5.366-1.108,6.981,1.133s1.108,5.366-1.133,6.981l0,0l-42.076,30.327
			C804.029,561.665,803.007,561.995,801.959,561.994z"/>
		<path fill="#00233A" d="M801.951,520c-1.108,0.001-2.184-0.368-3.058-1.048l-37.419-29c-2.228-1.632-2.711-4.761-1.079-6.988
			c1.632-2.228,4.761-2.711,6.988-1.079c0.073,0.054,0.145,0.11,0.216,0.167l37.419,29c2.18,1.694,2.574,4.836,0.88,7.016
			C804.951,519.287,803.494,520,801.951,520z"/>
		<path fill="#E97E1C" d="M645.048,453.574h63.814c18.829,0,34.093,15.264,34.093,34.093v119.999
			c0,18.829-15.264,34.093-34.093,34.093h-63.814c-18.829,0-34.093-15.264-34.093-34.093V487.667
			C610.955,468.838,626.219,453.574,645.048,453.574z"/>
		<path opacity="0.74" fill="#E8531F" enable-background="new    " d="M707.862,453.574h-15c18.829,0,34.093,15.264,34.093,34.093
			l0,0v120c0,18.828-15.264,34.092-34.092,34.092c0,0-0.001,0-0.001,0h15c18.828,0.001,34.092-15.263,34.093-34.091
			c0,0,0-0.001,0-0.001v-120C741.955,468.838,726.691,453.574,707.862,453.574L707.862,453.574z"/>
		<path fill="#00233A" d="M708.862,646.76h-63.814c-21.58-0.024-39.069-17.513-39.093-39.093v-120
			c0.024-21.58,17.513-39.069,39.093-39.093h63.814c21.58,0.024,39.069,17.513,39.093,39.093v120
			C747.931,629.247,730.442,646.736,708.862,646.76z M645.048,458.574c-16.06,0.018-29.075,13.033-29.093,29.093v120
			c0.018,16.06,13.033,29.075,29.093,29.093h63.814c16.06-0.018,29.075-13.033,29.093-29.093v-120
			c-0.018-16.06-13.033-29.075-29.093-29.093H645.048z"/>
		<path fill="#00233A" d="M676.956,618.819c-2.761,0-5-2.238-5.001-4.999c0-1.396,0.583-2.729,1.61-3.676l28-25.82
			c2.03-1.872,5.194-1.744,7.066,0.286c1.872,2.03,1.744,5.194-0.286,7.066l-28,25.819
			C679.423,618.348,678.212,618.821,676.956,618.819z"/>
		<path fill="#00233A" d="M676.952,576c-0.709-0.001-1.41-0.152-2.056-0.444l-31-14.006c-2.516-1.137-3.635-4.099-2.497-6.615
			s4.099-3.635,6.615-2.497l31,14c2.52,1.129,3.648,4.087,2.519,6.607C680.724,574.849,678.929,576.007,676.952,576z"/>
		<path fill="#00233A" d="M801.955,731c-2.761,0-5-2.239-5-5V444c0-2.761,2.239-5,5-5s5,2.239,5,5v282
			C806.955,728.761,804.716,731,801.955,731z"/>
		<path fill="#00233A" d="M676.955,731c-2.761,0-5-2.239-5-5V527c0-2.761,2.239-5,5-5s5,2.239,5,5v199
			C681.955,728.761,679.716,731,676.955,731z"/>
		<ellipse fill="#FFB845" cx="202.701" cy="454.815" rx="60" ry="160"/>
		<path opacity="0.53" fill="#D89535" enable-background="new    " d="M202.7,294.815c-0.525,0-1.048,0.018-1.571,0.054
			c27.69,14.192,48.61,79.129,48.61,157.108c0,86.965-26.018,157.724-58.429,159.946c3.51,1.863,7.416,2.854,11.39,2.892
			c33.137,0,60-71.635,60-160S235.838,294.815,202.7,294.815z"/>
		<path fill="#00233A" d="M202.7,619.814c-18.261,0-34.991-17.794-47.108-50.107c-11.537-30.768-17.892-71.571-17.892-114.893
			s6.354-84.125,17.892-114.892c12.117-32.313,28.847-50.108,47.108-50.108s34.991,17.795,47.108,50.108
			c11.538,30.767,17.892,71.57,17.892,114.892s-6.354,84.125-17.892,114.893C237.692,602.02,220.962,619.814,202.7,619.814z
			 M202.7,299.814c-26.561,0-55,62.283-55,155s28.439,155,55,155s55-62.283,55-155S229.262,299.814,202.7,299.814L202.7,299.814z"/>
		<path fill="#00233A" d="M202.407,720c-2.761,0-5-2.239-5-5V402c0-2.761,2.239-5,5-5s5,2.239,5,5v313
			C207.407,717.761,205.168,720,202.407,720z"/>
		<path fill="#00233A" d="M202.7,505c-2.761-0.002-4.998-2.243-4.996-5.004c0.001-1.096,0.362-2.162,1.028-3.033l23.706-31
			c1.65-2.214,4.783-2.671,6.997-1.021c2.214,1.65,2.671,4.783,1.021,6.997c-0.025,0.033-0.05,0.066-0.075,0.098l-23.7,31
			C205.734,504.278,204.261,505.004,202.7,505z"/>
		<path fill="#00233A" d="M202.7,566c-1.361,0.002-2.664-0.553-3.606-1.535L173.468,537.8c-1.914-1.991-1.851-5.156,0.14-7.07
			c1.991-1.914,5.156-1.851,7.07,0.14l25.628,26.667c1.913,1.992,1.848,5.157-0.144,7.07C205.231,565.501,203.991,566,202.7,566z"/>
		<path fill="#00233A" d="M202.409,459.333c-1.432,0.002-2.797-0.611-3.745-1.685L178,434.315c-1.82-2.077-1.611-5.236,0.466-7.056
			c2.061-1.806,5.192-1.616,7.02,0.426l20.667,23.334c1.83,2.068,1.638,5.228-0.43,7.058c-0.913,0.809-2.091,1.255-3.311,1.256
			L202.409,459.333z"/>
		<circle opacity="0.6" fill="#EF8C3A" enable-background="new    " cx="232.74" cy="428.585" r="8.333"/>
		<circle fill="#FFD766" cx="177.073" cy="389.963" r="5.297"/>
		<circle fill="#FFD766" cx="211.626" cy="378.59" r="4.516"/>
		<circle opacity="0.38" fill="#FFB845" enable-background="new    " cx="647.811" cy="494.689" r="10.189"/>
		<circle opacity="0.38" fill="#FFB845" enable-background="new    " cx="679.796" cy="500.567" r="7.312"/>
		<circle opacity="0.74" fill="#E8531F" enable-background="new    " cx="647.811" cy="591.493" r="7.312"/>
		<circle opacity="0.74" fill="#E8531F" enable-background="new    " cx="701.478" cy="533.095" r="6.095"/>
		<circle opacity="0.6" fill="#EF8C3A" enable-background="new    " cx="171" cy="484.5" r="8.333"/>
		<circle opacity="0.6" fill="#EF8C3A" enable-background="new    " cx="189.74" cy="360.333" r="8.333"/>
		<circle opacity="0.6" fill="#EF8C3A" enable-background="new    " cx="226.74" cy="526.333" r="8.333"/>
		<circle fill="#FF9F48" cx="256.289" cy="355.314" r="23.216"/>
		<path fill="#EF8C3A" d="M256.289,332.1c-0.174,0-0.346,0.009-0.52,0.013c10.982,6.615,14.523,20.879,7.908,31.861
			c-4.105,6.815-11.414,11.054-19.368,11.231c10.981,6.62,25.25,3.085,31.87-7.896s3.085-25.25-7.896-31.87
			c-3.62-2.183-7.767-3.335-11.995-3.334V332.1z"/>
		<path fill="#00233A" d="M256.29,383.53c-15.583,0.001-28.216-12.632-28.217-28.215c-0.001-15.583,12.632-28.216,28.215-28.217
			c15.583-0.001,28.216,12.632,28.217,28.215c0,0,0,0.001,0,0.001C284.487,370.89,271.866,383.512,256.29,383.53z M256.29,337.098
			c-10.06-0.001-18.216,8.155-18.217,18.215c-0.001,10.06,8.155,18.216,18.215,18.217c10.06,0.001,18.216-8.155,18.217-18.215
			c0,0,0-0.001,0-0.001c-0.013-10.054-8.161-18.202-18.215-18.214V337.098z"/>
		<path fill="#FF6550" d="M643.515,726c0.014-26.111,21.193-47.268,47.305-47.253c26.091,0.014,47.239,21.162,47.253,47.253H643.515
			z"/>
		<path opacity="0.4" fill="#FF7364" enable-background="new    " d="M690.794,678.721c-4.732-0.004-9.439,0.7-13.963,2.089
			c19.83,6.104,33.349,24.442,33.315,45.19h27.927c0.039-26.073-21.066-47.24-47.139-47.279
			C690.887,678.721,690.841,678.721,690.794,678.721z"/>
		<path fill="#00233A" d="M738.073,731h-94.557c-2.761,0-5-2.239-5-5c-0.126-28.873,23.178-52.38,52.051-52.506
			s52.38,23.178,52.506,52.051c0.001,0.152,0.001,0.304,0,0.455C743.073,728.761,740.834,731,738.073,731z M648.81,721h83.969
			c-2.761-23.187-23.796-39.747-46.983-36.986C666.406,686.323,651.119,701.61,648.81,721z"/>
		<path fill="#FFB845" d="M714.891,726c0-17.305,14.028-31.333,31.333-31.333s31.333,14.028,31.333,31.333H714.891z"/>
		<path opacity="0.53" fill="#D89535" enable-background="new    " d="M746.224,694.667c-2.416,0.001-4.824,0.28-7.177,0.831
			c14.164,3.314,24.175,15.955,24.153,30.502h14.354c0.026-17.279-13.96-31.307-31.239-31.333
			C746.285,694.667,746.254,694.667,746.224,694.667z"/>
		<path fill="#00233A" d="M777.557,731h-62.666c-2.761,0-5-2.239-5-5c0-20.066,16.267-36.333,36.333-36.333
			s36.333,16.267,36.333,36.333C782.557,728.761,780.318,731,777.557,731z M720.367,721h51.713
			c-2.763-14.28-16.579-23.617-30.859-20.854C730.664,702.189,722.409,710.443,720.367,721z"/>
		<path fill="#FFB845" d="M787.622,726c0-12.61,10.223-22.833,22.833-22.833S833.288,713.39,833.288,726H787.622z"/>
		<path fill="#00233A" d="M833.288,731h-45.666c-2.761,0-5-2.239-5-5c0-15.372,12.461-27.833,27.833-27.833
			s27.833,12.461,27.833,27.833C838.288,728.761,836.049,731,833.288,731z M793.335,721h34.24
			c-2.763-9.455-12.668-14.88-22.123-12.117C799.61,710.59,795.042,715.158,793.335,721z"/>
		<path fill="#FFB845" d="M234.74,726c0.083-12.611,10.373-22.766,22.984-22.683c12.493,0.082,22.601,10.19,22.683,22.683H234.74z"/>
		<path fill="#00233A" d="M280.407,731H234.74c-2.761,0-5-2.239-5-5c0.092-15.372,12.628-27.759,28-27.667
			c15.242,0.091,27.577,12.425,27.667,27.667C285.407,728.761,283.168,731,280.407,731z M240.454,721h34.239
			c-2.762-9.455-12.666-14.88-22.12-12.119C246.73,710.588,242.161,715.157,240.454,721L240.454,721z"/>
		<path fill="#00233A" d="M349.907,726c0-8.063,6.537-14.6,14.6-14.6s14.6,6.537,14.6,14.6H349.907z"/>
		<path fill="#00233A" d="M324.264,724.736c-0.06-6.667,5.295-12.121,11.962-12.181c6.667-0.06,12.121,5.295,12.181,11.962
			c0.001,0.073,0.001,0.146,0,0.219H324.264z"/>
		<path fill="#00233A" d="M379.107,731h-29.2c-2.761,0-5-2.239-5-5c0-10.825,8.775-19.6,19.6-19.6s19.6,8.775,19.6,19.6
			C384.107,728.761,381.868,731,379.107,731z M356.314,721H372.7c-2.763-4.525-8.672-5.953-13.196-3.19
			C358.202,718.605,357.109,719.699,356.314,721L356.314,721z"/>
		<path fill="#00233A" d="M386.807,726c0-12.61,10.223-22.833,22.833-22.833S432.473,713.39,432.473,726H386.807z"/>
		<path fill="#00233A" d="M581.065,725.339c0.068-8.689,7.167-15.677,15.856-15.609c8.592,0.068,15.541,7.016,15.609,15.609H581.065
			z"/>
		<path fill="#00233A" d="M540.12,725.339c0-11.42,9.258-20.678,20.678-20.678c11.42,0,20.678,9.258,20.678,20.678H540.12z"/>
		<path fill="#00233A" d="M432.473,731h-45.666c-2.761,0-5-2.239-5-5c0-15.372,12.461-27.833,27.833-27.833
			s27.833,12.461,27.833,27.833C437.473,728.761,435.234,731,432.473,731L432.473,731z M392.52,721h34.24
			c-2.763-9.455-12.668-14.88-22.123-12.117C398.795,710.59,394.227,715.158,392.52,721z"/>
		<path fill="#00233A" d="M873.406,731H527.667c-2.761,0-5-2.239-5-5s2.239-5,5-5h345.739c2.761,0,5,2.239,5,5
			S876.167,731,873.406,731z"/>
		<path fill="#00233A" d="M510.406,731h-25c-2.761,0-5-2.239-5-5s2.239-5,5-5h25c2.761,0,5,2.239,5,5S513.167,731,510.406,731z"/>
		<path fill="#00233A" d="M470.407,731h-360c-2.761,0-5-2.239-5-5s2.239-5,5-5h360c2.761,0,5,2.239,5,5S473.168,731,470.407,731z"/>
		<rect x="334.015" y="676.521" fill="#81440E" width="20" height="49.479"/>
		<rect x="334.015" y="676.521" fill="#81440E" width="20" height="49.479"/>
		<rect x="334.015" y="676.521" fill="#663717" width="20" height="15.221"/>
		<rect x="540.798" y="676.521" fill="#81440E" width="20" height="49.479"/>
		<rect x="540.798" y="676.521" fill="#663717" width="20" height="15.221"/>
		<path fill="#00233A" d="M354.016,731h-20c-2.761,0-5-2.239-5-5v-49.479c0-2.761,2.239-5,5-5h20c2.761,0,5,2.239,5,5V726
			C359.016,728.761,356.777,731,354.016,731z M339.016,721h10v-39.479h-10V721z"/>
		<path fill="#00233A" d="M560.8,731h-20c-2.761,0-5-2.239-5-5v-49.479c0-2.761,2.239-5,5-5h20c2.761,0,5,2.239,5,5V726
			C565.8,728.761,563.561,731,560.8,731z M545.8,721h10v-39.479h-10V721z"/>
		<rect x="346.907" y="547.87" fill="#81440E" width="14" height="106.079"/>
		<rect x="346.907" y="569.165" fill="#663717" width="14" height="67.835"/>
		<path fill="#00233A" d="M360.907,658.949h-14c-2.761,0-5-2.239-5-5V547.87c0-2.761,2.239-5,5-5h14c2.761,0,5,2.239,5,5v106.079
			C365.907,656.71,363.668,658.949,360.907,658.949z M351.907,648.949h4V552.87h-4V648.949z"/>
		<rect x="533.907" y="547.87" fill="#81440E" width="14" height="106.079"/>
		<rect x="533.907" y="563.997" fill="#663717" width="14" height="73.003"/>
		<path fill="#00233A" d="M547.906,658.949h-14c-2.761,0-5-2.239-5-5V547.87c0-2.761,2.239-5,5-5h14c2.761,0,5,2.239,5,5v106.079
			C552.906,656.71,550.667,658.949,547.906,658.949z M538.906,648.949h4V552.87h-4V648.949z"/>
		<rect x="301.225" y="564.079" fill="#81440E" width="280" height="30"/>
		<rect x="301.225" y="564.079" fill="#A05720" width="280" height="10.171"/>
		<path fill="#00233A" d="M581.226,599.079h-280c-2.761,0-5-2.239-5-5v-30c0-2.761,2.239-5,5-5h280c2.761,0,5,2.239,5,5v30
			C586.226,596.84,583.987,599.079,581.226,599.079z M306.226,589.079h270v-20h-270V589.079z"/>
		<rect x="301.225" y="594.079" fill="#81440E" width="280" height="30"/>
		<rect x="301.225" y="594.079" fill="#A05720" width="280" height="9.671"/>
		<path fill="#00233A" d="M581.226,629.079h-280c-2.761,0-5-2.239-5-5v-30c0-2.761,2.239-5,5-5h280c2.761,0,5,2.239,5,5v30
			C586.226,626.84,583.987,629.079,581.226,629.079z M306.226,619.079h270v-20h-270V619.079z"/>
		<rect x="279.225" y="656.521" fill="#81440E" width="336.363" height="20"/>
		<rect x="279.225" y="656.521" fill="#81440E" width="336.363" height="20"/>
		<rect x="279.225" y="656.521" fill="#A05720" width="336.363" height="7.979"/>
		<path fill="#00233A" d="M615.588,681.521H279.225c-2.761,0-5-2.239-5-5v-20c0-2.761,2.239-5,5-5h336.363c2.761,0,5,2.239,5,5v20
			C620.588,679.282,618.349,681.521,615.588,681.521z M284.225,671.521h326.363v-10H284.225V671.521z"/>
		<circle fill="#663717" cx="355.167" cy="580.181" r="5.26"/>
		<circle fill="#663717" cx="355.167" cy="607.977" r="5.26"/>
		<circle fill="#663717" cx="542.167" cy="580.181" r="5.26"/>
		<circle fill="#663717" cx="542.167" cy="607.977" r="5.26"/>
		<circle fill="#00233A" cx="353.907" cy="580.181" r="4"/>
		<circle fill="#00233A" cx="353.907" cy="607.977" r="4"/>
		<circle fill="#00233A" cx="540.907" cy="580.181" r="4"/>
		<circle fill="#00233A" cx="540.907" cy="607.977" r="4"/>
		<path fill="#00233A" d="M602.905,760.078H596.8c-2.761,0-5-2.239-5-5s2.239-5,5-5h6.107c2.761,0,5,2.239,5,5s-2.239,5-5,5H602.905
			z"/>
		<path fill="#00233A" d="M577.1,760.078H443.711c-2.761,0-5-2.239-5-5s2.239-5,5-5H577.1c2.761,0,5,2.239,5,5
			S579.861,760.078,577.1,760.078z"/>
		<path fill="#00233A" d="M420.333,760.078h-22.926c-2.761,0-5-2.239-5-5s2.239-5,5-5h22.926c2.761,0,5,2.239,5,5
			S423.094,760.078,420.333,760.078z"/>
		<path fill="#00233A" d="M625.381,337.1h-11.475c-2.761,0-5-2.239-5-5s2.239-5,5-5h11.475c2.761,0,5,2.239,5,5
			S628.142,337.1,625.381,337.1z"/>
		<path fill="#00233A" d="M682.906,337.1h-36.5c-2.761,0-5-2.239-5-5s2.239-5,5-5h36.5c2.761,0,5,2.239,5,5
			S685.667,337.1,682.906,337.1z"/>
		<path fill="#00233A" d="M78.049,413.227h-34.5c-2.761,0-5-2.239-5-5s2.239-5,5-5h34.5c2.761,0,5,2.239,5,5
			S80.81,413.227,78.049,413.227z"/>
		<path fill="#00233A" d="M112.549,413.227H94.3c-2.761,0-5-2.239-5-5s2.239-5,5-5h18.249c2.761,0,5,2.239,5,5
			S115.31,413.227,112.549,413.227z"/>
		<path fill="#00233A" d="M945.95,404.134h-6.7c-2.761,0-5-2.239-5-5s2.239-5,5-5h6.7c2.761,0,5,2.239,5,5
			S948.711,404.134,945.95,404.134z"/>
		<path fill="#00233A" d="M923.333,404.134h-19.762c-2.761,0-5-2.239-5-5s2.239-5,5-5h19.762c2.761,0,5,2.239,5,5
			S926.094,404.134,923.333,404.134z"/>
		<path fill="#00233A" d="M713.181,373.667h-60.548c-2.761,0-5-2.239-5-5s2.239-5,5-5h60.548c2.761,0,5,2.239,5,5
			S715.942,373.667,713.181,373.667L713.181,373.667z"/>
		<path fill="#00233A" d="M416.966,404.134c-2.761,0-5-2.239-5-5s2.239-5,5-5c6.161,0,11.155-4.994,11.155-11.155
			s-4.994-11.155-11.155-11.155s-11.155,4.994-11.155,11.155l0,0c0,0.606,0.049,1.21,0.145,1.808
			c0.426,2.728-1.44,5.286-4.168,5.712c-2.706,0.423-5.249-1.411-5.703-4.112c-1.883-11.531,5.938-22.406,17.469-24.289
			c11.531-1.883,22.406,5.938,24.289,17.469c1.883,11.531-5.938,22.406-17.469,24.289
			C419.248,404.04,418.108,404.133,416.966,404.134L416.966,404.134z"/>
		<path fill="#00233A" d="M416.966,404.134H347.8c-2.761,0-5-2.239-5-5s2.239-5,5-5h69.165c2.761,0,5,2.239,5,5s-2.239,5-5,5
			H416.966z"/>
		<path fill="#00233A" d="M887.416,373.155c-2.761,0-5-2.239-5-5s2.239-5,5-5c6.161,0.001,11.155-4.993,11.156-11.154
			s-4.993-11.155-11.154-11.156c-6.161-0.001-11.155,4.993-11.156,11.154c0,0,0,0.001,0,0.001c0,0.606,0.048,1.211,0.144,1.809
			c0.425,2.729-1.443,5.285-4.171,5.71c-2.705,0.421-5.245-1.411-5.7-4.11c-0.182-1.127-0.273-2.267-0.273-3.409
			c0-11.684,9.471-21.155,21.155-21.155c11.684,0,21.155,9.471,21.155,21.155s-9.471,21.155-21.155,21.155
			C887.417,373.155,887.416,373.155,887.416,373.155z"/>
		<path fill="#00233A" d="M887.416,373.155h-58.985c-2.761,0-5-2.239-5-5s2.239-5,5-5h58.985c2.761,0,5,2.239,5,5
			S890.177,373.155,887.416,373.155z"/>
		<path fill="#00233A" d="M459.217,465.9c-11.691-0.008-21.163-9.492-21.155-21.183c0.001-1.133,0.092-2.263,0.274-3.381
			c0.426-2.728,2.983-4.595,5.712-4.168s4.595,2.983,4.168,5.712c-0.003,0.019-0.006,0.038-0.009,0.057
			c-0.096,0.598-0.145,1.203-0.145,1.809c0,6.161,4.994,11.155,11.155,11.155s11.155-4.994,11.155-11.155
			s-4.994-11.155-11.155-11.155l0,0c-2.761,0-5-2.239-5-5s2.239-5,5-5c11.684,0.005,21.151,9.481,21.146,21.164
			C480.358,456.431,470.893,465.895,459.217,465.9z"/>
		<path fill="#00233A" d="M459.217,433.585H397.64c-2.761,0-5-2.239-5-5s2.239-5,5-5h61.577c2.761,0,5,2.239,5,5
			S461.978,433.585,459.217,433.585z"/>
		<path fill="#00233A" d="M382.687,433.585h-7.3c-2.761,0-5-2.239-5-5s2.239-5,5-5h7.3c2.761,0,5,2.239,5,5
			S385.448,433.585,382.687,433.585z"/>
		<path fill="#00233A" d="M357.439,433.585h-35.784c-2.761,0-5-2.239-5-5s2.239-5,5-5h35.784c2.761,0,5,2.239,5,5
			S360.2,433.585,357.439,433.585z"/>
		<path fill="#00233A" d="M362.3,384.106h-64.058c-2.761,0-5-2.239-5-5s2.239-5,5-5H362.3c2.761,0,5,2.239,5,5
			S365.061,384.106,362.3,384.106z"/>
		<path fill="#00233A" d="M118.549,365.1H94.3c-2.761,0-5-2.239-5-5s2.239-5,5-5h24.249c2.761,0,5,2.239,5,5
			S121.31,365.1,118.549,365.1z"/>
		<circle fill="#EF4D3C" cx="886.665" cy="479.493" r="23.817"/>
		<path fill="#00233A" d="M886.665,508.31c-15.915,0.001-28.817-12.901-28.818-28.816c-0.001-15.915,12.901-28.817,28.816-28.818
			c15.915-0.001,28.817,12.901,28.818,28.816c0,0,0,0.001,0,0.001C915.463,495.4,902.572,508.292,886.665,508.31z M886.665,460.676
			c-10.392-0.001-18.817,8.424-18.818,18.816c-0.001,10.392,8.424,18.817,18.816,18.818c10.392,0.001,18.817-8.424,18.818-18.816
			c0,0,0-0.001,0-0.001C905.469,469.106,897.052,460.689,886.665,460.676z"/>
		<ellipse fill="#E97E1C" cx="162.667" cy="669.91" rx="34.297" ry="56.09"/>
		<path opacity="0.74" fill="#E8531F" enable-background="new    " d="M162.667,613.82c-0.776,0.005-1.55,0.052-2.321,0.142
			c13.378,7.649,22.977,28.459,22.977,52.948c0,29.7-14.118,54-31.976,55.948c3.431,2.025,7.336,3.108,11.32,3.142
			c18.941,0,34.3-25.112,34.3-56.09S181.608,613.82,162.667,613.82z"/>
		<path fill="#00233A" d="M162.667,731c-22.036,0-39.3-26.834-39.3-61.09s17.261-61.091,39.3-61.091s39.3,26.834,39.3,61.091
			S184.7,731,162.667,731z M162.667,618.819c-15.881,0-29.3,23.4-29.3,51.091s13.419,51.09,29.3,51.09s29.3-23.4,29.3-51.09
			S178.547,618.819,162.667,618.819z"/>
		<path fill="#FF6550" d="M166.251,726c0.102-18.92,15.523-34.176,34.443-34.074c18.776,0.101,33.972,15.297,34.074,34.074H166.251z
			"/>
		<path opacity="0.4" fill="#FF7364" enable-background="new    " d="M200.509,691.742c-2.898-0.002-5.786,0.362-8.593,1.082
			c15.128,3.9,25.691,17.554,25.666,33.176h17.186c0.028-18.892-15.264-34.23-34.156-34.258
			C200.578,691.742,200.543,691.742,200.509,691.742z"/>
		<path fill="#00233A" d="M234.768,731h-68.517c-2.761,0-5-2.239-5-5c0.109-21.682,17.775-39.17,39.457-39.06
			c21.527,0.109,38.952,17.533,39.06,39.06C239.768,728.761,237.529,731,234.768,731z M171.678,721h57.662
			c-2.764-15.923-17.912-26.591-33.835-23.827C183.328,699.286,173.791,708.823,171.678,721L171.678,721z"/>
		<circle opacity="0.91" fill="#FF6550" enable-background="new    " cx="791.19" cy="382.018" r="7.945"/>
		<circle opacity="0.91" fill="#FF6550" enable-background="new    " cx="774.715" cy="418.406" r="10.179"/>
		<circle opacity="0.91" fill="#FF6550" enable-background="new    " cx="828.431" cy="500" r="10.179"/>
		<circle opacity="0.4" fill="#FF7364" enable-background="new    " cx="833.172" cy="444.74" r="10.179"/>
		<circle opacity="0.38" fill="#FFB845" enable-background="new    " cx="159.68" cy="656.521" r="8.333"/>
		<circle opacity="0.6" fill="#E8531F" enable-background="new    " cx="147.613" cy="670.75" r="4.912"/>
		<circle opacity="0.38" fill="#FFB845" enable-background="new    " cx="168.013" cy="684.131" r="5.833"/>
	</g>
</g>
</svg>