<svg xmlns="http://www.w3.org/2000/svg" width="71.61mm" height="61.29mm" viewBox="0 0 202.98 173.72">
	<path d="M81.14,28.87C104,9.16,151.65,7.05,173.11,32s15.11,61.9-7.79,81.61S106.47,129.06,85,104.13,58.25,48.58,81.14,28.87Z" style="fill: #f9c273" />
	<path d="M115.67,133.39l21.19-7.62.48,2.86-21.2,8.09Z" style="fill: #94a3b8" />
	<path d="M146.15,122.43C125.62,130,98.09,140.34,92,141l-26-7.38a.3.3,0,0,1,0-.57l63-14Z" style="fill: #94a3b8" />
	<path d="M146.06,122C136,125.67,126,129.44,115.9,133c-7.24,2.57-14.57,5.52-22.1,7.14a5.76,5.76,0,0,1-3.57-.28c-2.57-.72-5.19-1.48-7.77-2.19-3.09-.86-6.19-1.77-9.28-2.62-1.91-.53-4.29-1.67-6.34-1.81-1-.05-1,.28.1,0,1.42-.33,2.81-.62,4.23-.95l15.39-3.43c12-2.67,23.87-5.33,35.82-8,1.76-.38,3.53-.81,5.29-1.19a4.64,4.64,0,0,1,1.14-.24c.15,0,.34,0-.09,0a4.06,4.06,0,0,1,.76.14c5.43,1.19,10.91,2.19,16.34,3.24.52.1,1.28-.81.62-1l-7.86-1.57c-3-.57-6.05-1.62-9.05-1.81a9.13,9.13,0,0,0-2.24.33c-2.19.48-4.38,1-6.53,1.48l-43.58,9.71-8.39,1.86c-1,.24-2.66.24-3.33,1.1a.5.5,0,0,0-.14.62c.52.71,1.66.81,2.47,1,2.15.62,4.29,1.24,6.43,1.81,5,1.38,9.86,2.81,14.82,4.19a14.13,14.13,0,0,0,2.76.76c1.72.14,3.86-.76,5.48-1.24,6.81-2,13.53-4.38,20.2-6.76,9.62-3.43,19.19-7,28.81-10.58C146.87,122.62,146.77,121.72,146.06,122Z" style="fill: #1a2e44" />
	<path d="M51.07,123.91c-6.38.38-13,3.81-34.67,7.57Z" style="fill: #94a3b8" />
	<path d="M51.12,123.39c-3.95.28-7.81,1.52-11.62,2.52-7.62,2-15.29,3.72-23.06,5.05-.57.09-.85,1.19-.14,1q11.64-2.07,23.05-5c3.82-1,7.67-2.24,11.63-2.53C51.55,124.39,51.88,123.34,51.12,123.39Z" style="fill: #1a2e44" />
	<path d="M202.46,125.34c-6.19,1.57-74.17,36.72-96.18,47.82Z" style="fill: #94a3b8" />
	<path d="M202.55,124.81c-3.43.91-6.76,2.81-10,4.34-6.39,3-12.72,6.19-19.06,9.34q-23.72,11.85-47.35,24c-6.62,3.38-13.29,6.81-19.91,10.15-.52.28-.57,1.33.15.95,28-14.15,55.73-28.82,84-42.44,3.85-1.86,7.9-4.29,12.05-5.39C203,125.72,203.27,124.62,202.55,124.81Z" style="fill: #1a2e44" />
	<path d="M88.37,122.29s11.91,1.19,9.29,3.33-41.35,3.15-48.68.62,5.9-4.95,5.9-4.95l4.48,3.43C70.51,125,78.32,123.72,88.37,122.29Z" style="fill: #1a2e44" />
	<path d="M178.92,24.31c.57,0,1.86,1.15,1.19,2S172.35,38.89,171.82,39,155.34,28.41,155.48,27.5a2.33,2.33,0,0,1,2.15-2.9C164.49,23.6,178.92,24.31,178.92,24.31Z" style="fill: #1a2e44" />
	<path d="M163.73,13.69c5.05,3.29,10.09,6.53,15.19,9.81a1.49,1.49,0,0,1,.67.67,1.34,1.34,0,0,1-.29,1c-2.52,4-5.05,8.14-7.62,12.19A146,146,0,0,0,155.34,27a1,1,0,0,1-.62-.67,1.59,1.59,0,0,1,.15-.52,75.74,75.74,0,0,1,7.67-11.72" style="fill: #94a3b8" />
	<path d="M163.25,14.07c4.67,3,9.34,6,14,9.05.95.62,1.14.48,1.14,1.71a3.36,3.36,0,0,1-.76,2.1l-2.15,3.43-4.28,6.86a7.21,7.21,0,0,0,.9-.19c-4.19-3.05-8.53-5.91-13-8.53-1.24-.71-3.62-1.47-3.34-3.38.19-1.14,1.62-2.81,2.19-3.72a82.25,82.25,0,0,1,5-7.09c.47-.62-.53-.91-.91-.38a78,78,0,0,0-5.38,7.67c-.76,1.23-3.29,4-2.29,5.57.53.76,2.38,1.38,3.19,1.86,1.38.81,2.77,1.62,4.15,2.47,3.19,2,6.33,4.1,9.38,6.34a.7.7,0,0,0,.91-.19c1.76-2.81,3.47-5.57,5.24-8.39.71-1.09,3.28-3.85,2.76-5.28-.33-.91-1.62-1.34-2.34-1.81l-4.81-3.1c-2.9-1.9-5.86-3.76-8.76-5.67C163.68,13,162.77,13.74,163.25,14.07Z" style="fill: #1a2e44" />
	<path d="M162.49,14.21c.95,2.38,1.95,4.72,2.9,7.1.62,1.48,1.29,4.67,2.67,5.53s3.71.38,5.1.23a23.28,23.28,0,0,0,6.47-1.57c.53-.19.39-1.33-.28-1.09a25.06,25.06,0,0,1-5.81,1.43c-2.34.23-4.62.71-5.86-1.53-1.81-3.38-3-7.29-4.48-10.81C163,12.83,162.25,13.69,162.49,14.21Z" style="fill: #1a2e44" />
	<path d="M178.83,25.69S171,27.93,169.92,28s-1.86-1.81-1.86-1.81a36.57,36.57,0,0,0,4.48.38c1-.09,6.33-1.33,6.33-1.33Z" style="fill: #1a2e44" />
	<path d="M100,150.4a.62.62,0,0,0,.19-.2l14.1,1.1a.53.53,0,0,1,.38.86l-8.62,11.05-17.68-1.05a.62.62,0,0,1-.38-1.09l5.62-5c1.53-1.38,3-2.76,4.58-4.09.28-.24,1.23-1.43,1.66-1.38.91,0,2.34,3.85,2.81,4.71A2.25,2.25,0,0,1,103,157c-.23.66-1,.9-1.71,1.09-4.76,1.19-8.24,2.38-13,3.57" style="fill: #94a3b8" />
	<path d="M100.19,150.68c.52-.48,4.71.29,5.71.38,1.53.1,3,.24,4.57.34a18.14,18.14,0,0,1,3.2.23c.76.24.62.19.28.86a16.29,16.29,0,0,1-2.09,2.67c-1.77,2.24-3.48,4.48-5.24,6.71-.24.29-.48.62-.72.91s0,.1.19.05a7.11,7.11,0,0,1-2-.15c-2.86-.19-5.76-.33-8.62-.52-1.33-.09-2.67-.14-4-.24a9.88,9.88,0,0,1-2.67-.14c-.9-.43-.09-.81.48-1.29,1.14-1,2.28-2,3.43-3.05s2.14-1.9,3.19-2.85a24.5,24.5,0,0,1,3-2.77c1.57-.81,1.85.62,2.43,1.81a11.08,11.08,0,0,1,1.14,2.43c-.24,2-3.1,2.15-4.53,2.53-3.19.9-6.38,1.86-9.62,2.67-.47.14-.62,1-.05.76,3.53-.91,7-2,10.44-2.91,1.28-.33,4.19-.52,4.71-2.19.43-1.38-1.24-3.86-1.9-5s-1.15-2.09-2.43-1.33a20.07,20.07,0,0,0-2.81,2.57c-1,.9-2,1.81-3,2.72-1.24,1.09-2.48,2.19-3.72,3.33-1,.81-3.66,2.91-1,3.38,3,.53,6.39.38,9.43.57,1.81.1,3.67.24,5.48.34a8.64,8.64,0,0,0,2.43.14c.57-.19.86-.76,1.24-1.24,1.1-1.38,2.14-2.76,3.24-4.14s2.29-2.91,3.43-4.39c.38-.47,1.14-1.14,1.29-1.71.66-2.1-5.48-1.67-6.58-1.72-2-.14-4-.33-6.1-.47-.81,0-2-.43-2.66.14C99.33,150.49,99.76,151.06,100.19,150.68Z" style="fill: #1a2e44" />
	<path d="M43.69,136.1l16.77.53-6.67,7.62a1,1,0,0,1-.81.33L36.12,143.2a.5.5,0,0,1-.29-.9c2.19-1.77,5.62-4.29,7.34-5.77" style="fill: #94a3b8" />
	<path d="M43.55,136.49c5.57.19,11.19.33,16.76.52,0-.19-.14-.38-.19-.57-1.9,2.19-3.81,4.38-5.76,6.57-.67.76-.91,1.15-1.86,1.19a25.79,25.79,0,0,1-3.81-.33L38.31,143c-1-.09-2.53.29-1.72-.9s2.62-2.05,3.67-2.81,2.14-1.67,3.19-2.58c.48-.42-.28-.71-.67-.42-1.28,1.14-2.66,2.19-4,3.23-.91.67-2.86,1.67-3.34,2.62s0,1.24.86,1.43c3.52.77,7.57.62,11.15.91,1.81.14,5.28,1.19,6.81-.19,2.43-2.15,4.43-5.05,6.57-7.48.19-.24.14-.57-.19-.57-5.57-.19-11.19-.34-16.77-.53C43.31,135.72,42.93,136.44,43.55,136.49Z" style="fill: #1a2e44" />
	<path d="M59.12,136.44c-2.57,1.05-5.28,1-7.9,1.67-1.39.38-3,1.28-4.43.81-1.1-.34-2.29-1.67-3.2-2.39-.38-.28-.76.57-.38.86,1.1.81,2.48,2.29,3.86,2.67,1.1.33,1.76-.14,2.81-.57,3-1.24,6.43-1,9.48-2.19C59.69,137.15,59.6,136.2,59.12,136.44Z" style="fill: #1a2e44" />
	<path d="M88.42,162.69l18.39,1.85a.76.76,0,0,0,.71-.28c1.29-1.62,6.53-8.29,8.53-11.39a1,1,0,0,0-.81-1.47l-8.62,11.86Z" style="fill: #1a2e44" />
	<path d="M60.79,136.2c.43.19.29,1.29,0,1.67l-5.86,7.38a2.65,2.65,0,0,1-1.71.57l-16.63-1.19a1.43,1.43,0,0,1-1.28-1l-.29-.86,18.72,1.48,6.81-8.15Z" style="fill: #1a2e44" />
	<path d="M32.16,70.08a12.5,12.5,0,0,1,.72-1.57c2.81-4.57,9.95-9.24,18.15-8.29,6.28.76,7.57-2.9,15-2.67,4.24-4.71,8.29.43,22.68,1.15,2.9.14,7.14.09,9.09.57,4,.95,7.67,6.57,9,10.29,3.86,6.52,8.48,7.62,9.48,9.33,9.19,3,9.19,3,14.34,4.72-5.72,6.29-5,19.2-3.53,23.58-6.24,0,2.72,1.91-.81-4.24-.48-.81-22.24-1.38-22.77-2.43-5.71,4-29.44,2.76-37.53,4-5.67,5.58-7.39,17.58-7,21.82-6.09-1.33-26.24-8.53-28.29-15.29C27.78,101.66,25.11,79.32,32.16,70.08Z" style="fill: #94a3b8" />
	<path d="M32.59,70.37c1.72-4.24,6-7.24,10.19-8.67a20.28,20.28,0,0,1,7.91-1,14.27,14.27,0,0,0,5.48-.38c1.48-.43,2.86-1.1,4.33-1.58a13.51,13.51,0,0,1,2.67-.57c.86-.09,2.38.14,3.19-.24,1-.47,1.48-1.43,2.67-1.71a8.25,8.25,0,0,1,3.43.09c3.29.62,6.43,1.62,9.72,2.15,4.71.76,9.43.52,14.19,1s7.91,5.05,9.67,9.19a19.57,19.57,0,0,0,7.2,8.29c1,.71,1.85,1.62,2.81,2.29,1.57,1.09,4.38,1.47,6.19,2.09l8.29,2.72c-.1-.34-.19-.67-.29-1-5.24,6-5.9,16.72-3.62,24.15.14-.24.24-.48.38-.72-.47,0-2.62-.24-2.66.67a.73.73,0,0,0,.28.67c1.38.9,2.91-1.1,2.95-2.29.1-2.86-1.42-3.48-3.76-3.72-3.76-.38-7.57-.57-11.34-.8-1.85-.15-3.71-.24-5.57-.43-.57-.05-2.76-.1-3.1-.48a.45.45,0,0,0-.57-.14c-4,2.62-10.1,2.57-14.67,2.86-5.76.33-11.53.38-17.29.66-1.48.1-4.19-.19-5.57.53-2,1-3.48,4.81-4.34,6.81a35.28,35.28,0,0,0-2.86,15.48l.43-.57a73.92,73.92,0,0,1-11.76-4c-4.53-1.85-9.24-4-13-7.09-3.43-2.81-4-6.82-4.71-11a81.41,81.41,0,0,1-1.29-16.34c.14-5.77.86-12.15,4.38-17,.34-.43-.33-1.43-.71-.86-3.1,4.19-4,9.58-4.43,14.67a78.21,78.21,0,0,0,.9,18c.58,3.76,1,8.62,3.53,11.62,3.09,3.62,8,5.91,12.24,7.82a83.33,83.33,0,0,0,15,5.28c.28,0,.43-.33.43-.57a32.73,32.73,0,0,1,1.38-10.72,31.37,31.37,0,0,1,2-5.62c.76-1.57,2.09-4.52,4-5,3-.76,6.57-.43,9.62-.52,3.86-.15,7.77-.19,11.63-.43a74,74,0,0,0,10.33-1.1,17.07,17.07,0,0,0,3.72-1.05,11.51,11.51,0,0,0,1.14-.52c.76-.43-.48-.19.33-.14,1.77.14,3.53.62,5.34.76,3,.24,6.1.43,9.1.62,1.57.09,3.09.19,4.67.33a8.13,8.13,0,0,1,3,.38,2.59,2.59,0,0,1,.9,2.24c-.14.72-.52.76-1,1.19-.24.24-2.05,0-.57,1.15a9.89,9.89,0,0,0,2-.15c.38,0,.48-.42.38-.71-2.19-7-1.52-17.29,3.48-23a.72.72,0,0,0-.29-1l-7.81-2.57c-1.86-.62-4.29-1-6-2a29.68,29.68,0,0,1-2.57-2,23.7,23.7,0,0,1-4.48-3.71c-1.91-2.1-2.86-4.53-4.19-7-1.72-3-4.29-6.43-7.82-7.29-4.57-1.09-9.62-.38-14.29-1-3.71-.53-7.28-1.62-10.9-2.34-2-.38-4-.47-5.72.81-.76.57-.67.67-1.62.91s-2,.09-2.95.28A38.76,38.76,0,0,0,56.65,59c-2.43.81-4.67.58-7.2.48A19.93,19.93,0,0,0,41.16,61c-3.95,1.67-7.71,4.62-9.33,8.62C31.54,70.27,32.3,71.08,32.59,70.37Z" style="fill: #1a2e44" />
	<path d="M52.45,85c.67,2.28,1.34,4.47,2,6.66.86,2.86.67,4.91,0,6a1.72,1.72,0,0,1-2.43.67c-.52-.48-.85-1.34.43-2,1-.52,2.67.86,5.1,2.29" style="fill: #94a3b8" />
	<path d="M51.93,85.23a70.58,70.58,0,0,1,2.38,8.29,8.15,8.15,0,0,1,.14,1.9,4,4,0,0,1-.19,1.34c0,.43-.14.47-.47.19-.72-.29-.53-.19.62.33.19.15.43.24.62.38.71.43,1.43.91,2.19,1.34.52.28,1.19-.67.71-1-1.52-.9-4.48-3.66-6.29-1.76a1.62,1.62,0,0,0,1,2.81c1.81.15,2.72-1.86,2.86-3.33.38-3.67-1.52-7.62-2.52-11C52.74,84,51.79,84.71,51.93,85.23Z" style="fill: #1a2e44" />
	<path d="M54.6,17.07c-1.43-2.43-1.34-6.24-1.05-7.86.43,1.23.62,2.95,2.14,3.23s3.24-1.09,3,.53S56,19.49,54.6,17.07Z" style="fill: #1a2e44" />
	<path d="M56.46,14.06a8.11,8.11,0,0,1-1.05-5.38c.38.86.57,2.05,1.76,2.24a11,11,0,0,0,3.19-.33C61.17,10.44,57.65,15.73,56.46,14.06Z" style="fill: #1a2e44" />
	<path d="M80.37,14.11c.43,3.62.81,6.53,1.09,8.81.43,3.39,5,16.39,2.58,21a8.16,8.16,0,0,1-7.63,4.62c.91,5,1.72,8.67,2.43,11.2a17.73,17.73,0,0,0,1.81,4.52s3.15,4-4.28,4.38-17-10-17-10c1-6.1.57-3.14.57-6.43V39.88l-3.1-16.53c3.81-6,7.91-9.81,12.39-11.57C72.65,10.44,76.32,11.2,80.37,14.11Z" style="fill: #94a3b8" />
	<path d="M79.84,14.3c.39,3.29.62,6.67,1.29,10C81.65,26.88,82.46,29.4,83,32a31.85,31.85,0,0,1,1.14,9.2c-.33,4.14-3.72,6.62-7.72,6.76a.73.73,0,0,0-.62.72c.81,4.43,1.48,9.29,3.15,13.48.66,1.71,3.09,4.24.43,5.38-4.2,1.81-9-.71-12.39-3.1a39,39,0,0,1-4.1-3.28,13.49,13.49,0,0,1-2.76-2.62c-.62-1.15.43-3.53.38-5.15-.14-4.52.48-9.24,0-13.67C60,35,58.74,30.21,57.89,25.54a7.66,7.66,0,0,1-.43-2.33c.14-.76,1.76-2.48,2.28-3.14a37.44,37.44,0,0,1,3.43-3.82A18.83,18.83,0,0,1,70,12c3.62-1.1,7.15.57,10.1,2.57.48.33,1.19-.62.67-.95-4.72-3.24-9.39-3.91-14.39-.91A25.54,25.54,0,0,0,61,17.16c-.91,1-1.76,2.05-2.57,3.14-.62.86-1.91,2.15-2.05,3.2a7.4,7.4,0,0,0,.33,1.76c.34,1.71.62,3.43.95,5.14.58,3,1.29,6.05,1.72,9.1.62,4.43,0,9.15.09,13.62.1,1.86-1.09,4.58-.23,6.05a13.37,13.37,0,0,0,2.85,2.77,44.25,44.25,0,0,0,4.77,3.71c3.48,2.34,7.43,4,11.67,3,2.52-.57,4-2.24,2.81-4.71C78.94,59,78,53.6,77,48.17c-.19.24-.43.48-.62.71a9.14,9.14,0,0,0,8.14-5c1.24-2.52.81-5.71.38-8.38a104,104,0,0,0-2.33-10.24,104.1,104.1,0,0,1-1.67-11.48C80.85,13.21,79.8,13.73,79.84,14.3Z" style="fill: #1a2e44" />
	<path d="M67.22,16.3c-1,7.24-.24,7.58-4.09,10.63C68.94,33.55,58.55,39.6,55,37.45c-4.19-2.52-6.53-14.81-6.53-16.15,0-2.38.67-10.24,7.72-9.14,1.95-5.77,4.29-6.77,10.34-7.38,7.86-.81,6-2,11.76-4.63C80.7-.94,84.56,4,84.56,9.06,84.61,13.25,80.37,16.3,67.22,16.3Z" style="fill: #1a2e44" />
	<path d="M76.13,48.55l-4.24.19a9.19,9.19,0,0,0,2,1.48,7.49,7.49,0,0,0,2.57.86Z" style="fill: #1a2e44" />
	<path d="M76.37,48.5l-4.15-.19" style="fill: none;stroke: #1a2e44;stroke-linecap: round;stroke-width: 2px" />
	<path d="M70.37,23.4c-1.15.1-3.24-.09-2.62-.52s.81-.91,1.85-1,2-.19,2.05.19S71.51,23.31,70.37,23.4Z" style="fill: #1a2e44" />
	<path d="M63.22,40.69C60.55,41,56.65,38,56.74,35s2-4.09,4.62-4.43a4.92,4.92,0,0,1,5.48,4.29C67.17,37.55,65.94,40.36,63.22,40.69Z" style="fill: #94a3b8" />
	<path d="M63.32,40.22c-4.58.28-9.06-7.29-3.15-8.91A4.65,4.65,0,0,1,66,33.88c1,2.43,0,5.86-2.76,6.38-.67.15-.67,1.05.1.91,3.19-.62,4.76-4,4-7a5.53,5.53,0,0,0-6.76-3.95c-2.81.57-5,2.81-4.29,5.86a7.12,7.12,0,0,0,6.86,5.1C63.74,41.17,64.12,40.17,63.32,40.22Z" style="fill: #1a2e44" />
	<path d="M64.74,29.59l-1.62,3.05,1,6.53,1,2.47c3-1.57,4.2-4,3.67-7.14S67,29.69,64.74,29.59Z" style="fill: #94a3b8" />
	<path d="M62.74,34a3.68,3.68,0,0,0-1-.24,3.78,3.78,0,0,0-1,.1" style="fill: #94a3b8" />
	<path d="M62.89,33.59a3.4,3.4,0,0,0-1.15-.28,3.7,3.7,0,0,0-1.23.14c-.29,0-.34.38-.19.62a.74.74,0,0,0,.8.29,2.2,2.2,0,0,1,1.48.14c.24.09.62,0,.72-.24A.6.6,0,0,0,62.89,33.59Z" style="fill: #1a2e44" />
	<path d="M70.32,30.64c-.57.05-.62-.29-.67-.67s-.09-.9.43-.95.62.43.67.81S70.89,30.55,70.32,30.64Z" style="fill: #1a2e44" />
	<path d="M79,28.4c-.53.19-.67-.09-.81-.52s-.19-.91.19-1.05.71.24.86.62S79.51,28.21,79,28.4Z" style="fill: #1a2e44" />
	<path d="M75.13,26.3c1.14,2.48,2.05,4.58,2.76,6.29.38,1,0,1.76-1.33,2.43" style="fill: #94a3b8" />
	<path d="M74.61,26.54c.57,1.24,1.14,2.43,1.66,3.67s1.91,3.29.15,4.34c-.58.33-.39,1.28.28.85,1.1-.66,2-1.52,1.76-2.95C78,30.26,76.61,28,75.65,26,75.37,25.45,74.37,26.07,74.61,26.54Z" style="fill: #1a2e44" />
	<path d="M72.46,37.88a9.34,9.34,0,0,0,1.43,1.38,2.92,2.92,0,0,0,2.19.48" style="fill: #94a3b8" />
	<path d="M71.94,38.17a4.75,4.75,0,0,0,4.19,2c.76-.05.67-1,0-.91A3.47,3.47,0,0,1,73,37.6C72.6,37.21,71.51,37.64,71.94,38.17Z" style="fill: #1a2e44" />
	<path d="M77.37,23.83c1.14-.14,2.19-.33,2.09-1s-.71-.81-1.71-.86-1.67,0-1.76.48A1.22,1.22,0,0,0,77.37,23.83Z" style="fill: #1a2e44" />
	<path d="M71.75,32a4.34,4.34,0,1,0-5.39-3A4.36,4.36,0,0,0,71.75,32Z" style="fill: none;stroke: #1a2e44" />
	<path d="M82.51,31.07a4.16,4.16,0,1,0-5.14-2.86A4.15,4.15,0,0,0,82.51,31.07Z" style="fill: none;stroke: #1a2e44" />
	<path d="M75,27.12a5.36,5.36,0,0,1,1.19-.29,3.65,3.65,0,0,1,1,0" style="fill: none;stroke: #1a2e44;stroke-linecap: round" />
	<path d="M120.48,114.77s-13.15-.48-20.34,3.28C81.37,127.72,60,125,60,125s-1.33-2.72.05-8.91,6.24-12.72,6.76-12.91,27.49,0,27.49,0h1.14" style="fill: #94a3b8" />
	<path d="M120.38,114.34a60.64,60.64,0,0,0-8.95.38,42.06,42.06,0,0,0-14,4.09c-10.1,4.62-21.48,6.39-32.54,6.1-1.23,0-2.52-.09-3.76-.19a5.51,5.51,0,0,1-.9-.1c-.05,0,0,.48.14-.14a10.08,10.08,0,0,0-.29-1.62,16.91,16.91,0,0,1,.1-4.09,27.16,27.16,0,0,1,3.14-9.34c.86-1.57,2.1-4.57,3.67-5.62a4.36,4.36,0,0,1,1.62-.24c3,0,6.1,0,9.19,0,6,0,11.87.1,17.82.1.76,0,.48-.91-.19-.91-5.72,0-11.39-.05-17.1-.09-3.29,0-6.58,0-9.91,0a5.8,5.8,0,0,0-1.81.09c-1,.43-1.81,2-2.38,2.91-3.15,4.76-5.58,10.43-5.34,16.24.1,1.81,0,3.43,1.91,3.67a76.86,76.86,0,0,0,27.34-2.38,63.91,63.91,0,0,0,10.53-3.81,36.21,36.21,0,0,1,9.1-3.2,61.42,61.42,0,0,1,12.86-1C121.33,115.24,121.05,114.34,120.38,114.34Z" style="fill: #1a2e44" />
	<path d="M164.4,138.87c.09,1.38-9.72,4-21.68,5a115.54,115.54,0,0,1-14.29.28c-4.28-.09-5.76-2.19-5.86-2.95-.09-1.38,16.87-2.53,28.82-3.57S164.25,137.44,164.4,138.87Z" style="fill: #1a2e44" />
	<path d="M162.87,137.15c.15,2.38-7.67,4.86-17.43,5.53s-17.86-.72-18-3.05c0-.52-.66-2.86,0-3.38,2.38-1.81,9.82-1.62,17.48-2.15,8-.57,15.25-1.9,17.58-.28C163,134.15,162.87,136.68,162.87,137.15Z" style="fill: #94a3b8" />
	<path d="M162.44,137.15c-.09,1.95-5.24,3-6.57,3.34a62.47,62.47,0,0,1-12.24,1.66,49.43,49.43,0,0,1-10.67-.47c-2-.34-4.81-.67-5.15-3s.81-2.66,2.77-3a33.14,33.14,0,0,1,4.43-.48c3.9-.29,7.86-.33,11.76-.67,3.72-.28,7.39-.86,11.1-.9,1.1,0,3-.24,3.91.43s.66,1.95.66,3.09c0,.76.91.72.91-.05,0-1.38.33-3.28-1-4.09-2.19-1.34-6.05-.57-8.38-.38-4.38.38-8.72.81-13.1,1-3.62.19-7.43.1-11,1-2.05.47-3.24,1.05-3.05,3.28.15,1.53.29,2.77,1.67,3.62,2.1,1.29,5.05,1.53,7.48,1.72a62.84,62.84,0,0,0,12.72-.29A40.17,40.17,0,0,0,160,140.39c1.43-.62,3.34-1.52,3.43-3.29C163.35,136.39,162.49,136.44,162.44,137.15Z" style="fill: #1a2e44" />
	<path d="M145.26,139.29c9.79-.68,17.6-3.15,17.43-5.51s-8.23-3.73-18-3.05-17.59,3.16-17.43,5.52S135.47,140,145.26,139.29Z" style="fill: #94a3b8" />
	<path d="M162.06,133.68c-.09,1.9-3.86,2.85-5.24,3.24a51.56,51.56,0,0,1-10.76,1.85,57.55,57.55,0,0,1-11.44,0c-1.43-.15-6.47-.48-6.81-2.43s4.43-3.05,5.53-3.34a57,57,0,0,1,10.91-1.81,60,60,0,0,1,11.29.1c1.52.19,6.14.47,6.47,2.47.1.58,1.29.62,1.19,0-.23-1.43-1.85-2-3-2.43a29,29,0,0,0-8.29-1.19c-7.05-.28-15.05.19-21.68,2.91-2.52,1-5.33,3.38-1.71,5.19,2.29,1.14,5.1,1.38,7.57,1.57a66,66,0,0,0,12.34-.28,45.64,45.64,0,0,0,10.72-2.29c1.38-.52,4-1.48,4.09-3.29C163.3,133.29,162.11,133.1,162.06,133.68Z" style="fill: #1a2e44" />
	<path d="M153.54,133.47c.14,1-3.55,2.84-8.69,3.55-2.46.34-5.1-.36-6.79-.42a2.91,2.91,0,0,1-2.76-2.21c-.14-1,7.31-1.78,12.53-1.87S153.4,132.43,153.54,133.47Z" style="fill: #1a2e44" />
	<path d="M169.16,57.6c4.57.1,6.81,0,6.91,2.34.66,25-3.1,33.2-4,47-.43,6.58-2.67,5.62-7.29,7-14.58,4.48-46.73,8.15-62.59,12.53-7,1.95-10.62-.38-10.43-4.38C93.09,93.28,89.94,84.9,90,70.23c0-2.53,2-5.67,6.38-7C108.09,59.7,153.35,57.22,169.16,57.6Z" style="fill: #1a2e44" />
	<path d="M173,57.6c4.57.1,6.86,0,6.9,2.34.1,25.1-1.76,33.24-2.71,47.11-.43,6.57-4,5.57-8.62,7-14.58,4.48-46.73,8.15-62.59,12.53-7,1.95-10.63-.38-10.44-4.38C97,93.28,93.8,84.9,93.85,70.22c0-2.52,2-5.66,6.38-7C112,59.7,157.25,57.22,173,57.6Z" style="fill: #94a3b8" />
	<path d="M173,58.08c2.14.05,5.86-.62,6.43,2.05a23.54,23.54,0,0,1,0,4.52c0,1.91-.05,3.81-.09,5.72q-.15,7.63-.72,15.29c-.29,3.9-.71,7.86-1.1,11.76s-.19,8-1.09,11.68c-.67,2.62-2.43,3.28-4.81,3.76-2,.43-3.81,1-5.72,1.47-4.29,1.15-8.67,2-13,2.86-10.53,2-21.1,3.62-31.63,5.58-4.62.85-9.24,1.76-13.77,3C102.76,127,96,128,96.28,121.19a268.83,268.83,0,0,0-.43-31c-.29-3.57-.67-7.19-.95-10.76-.24-3.29-1-7.34-.19-10.58,1.09-4.43,6.19-5.48,10.05-6.19,3.52-.67,7.09-1.1,10.67-1.53A429.61,429.61,0,0,1,173,58.08c.62,0,.95-.95.19-.95a435.1,435.1,0,0,0-56.35,2.95c-4,.43-7.91.9-11.82,1.62-3.38.62-7,1.28-9.52,3.86-2.72,2.86-2.19,6.67-2,10.33.19,3.81.57,7.58.9,11.39a253.68,253.68,0,0,1,.76,33.53c-.09,1.81-.19,3.58,1.05,5a6.56,6.56,0,0,0,4.81,1.91c2.53.1,4.91-.67,7.34-1.29s4.76-1.14,7.14-1.62c11.53-2.38,23.2-4.09,34.83-6.24,4.95-.9,9.9-1.85,14.76-3.09,2.1-.53,4.15-1.19,6.24-1.67,1.53-.33,3.19-.57,4.43-1.62,3-2.43,2.34-8,2.67-11.38.38-4.15.86-8.24,1.19-12.39.43-5.1.72-10.19.86-15.34.09-3.24.14-6.48.14-9.67,0-1.71.67-4.52-1.09-5.62s-4.43-.66-6.29-.71C172.49,57.08,172.16,58.08,173,58.08Z" style="fill: #1a2e44" />
	<path d="M137,81.23a8,8,0,0,1,.62-3.76c4.66-4.39,12.52-4.2,13.67-.72.38,1.19,0,3.38,0,5.43.2,6.38.29,44,.62,50.92.1,1.72-3.43,2.48-7.05,2.67-3.81.19-7.38-1.05-7.43-2.05C137.39,128.48,137.05,87.9,137,81.23Z" style="fill: #94a3b8" />
	<path d="M137.58,81c0-2.57.57-3.86,2.9-5.05a11.7,11.7,0,0,1,5.2-1.33,6.5,6.5,0,0,1,4,1c1.52,1.14,1.19,3,1.14,4.67-.14,3.19.05,6.43.05,9.62.09,10,.14,20,.28,30.06,0,3.81.1,7.62.19,11.43a7.83,7.83,0,0,1,0,1.52c-.52,2.19-4.62,2.19-6.38,2.29-2.14.09-6.91.14-7-2.81-.14-8.1-.19-16.2-.28-24.3-.05-9-.14-18-.19-27,0-.62-1.15-.24-1.15.33,0,9.39.15,18.77.24,28.15.05,5.53.1,11,.15,16.53,0,1.86,0,3.72.09,5.53,0,1.14-.24,2.33.72,3.1,2.47,2.09,7.57,1.61,10.43,1.09,1.86-.33,4.29-.86,4.48-3.05.33-3.76-.19-7.86-.24-11.67-.15-11.34-.19-22.62-.29-34,0-1.72,0-3.43-.09-5.1,0-2.81,1-6.24-2.15-7.72-2.62-1.23-6-.76-8.57.29a10.61,10.61,0,0,0-4,2.57c-.81,1.1-.72,2.81-.76,4.15C136.43,82,137.58,81.61,137.58,81Z" style="fill: #1a2e44" />
	<path d="M186.39,30c3.47-.38,4.76-1.15,8.38-1.1Z" style="fill: #94a3b8" />
	<path d="M186.39,30.56c2.76-.33,5.43-1.1,8.24-1.1.57,0,.9-1.14.28-1.14-2.9,0-5.62.76-8.48,1.1C185.86,29.51,185.67,30.66,186.39,30.56Z" style="fill: #1a2e44" />
	<path d="M183.38,19.17c3.29-1.14,5.05-2,7.15-4.33Z" style="fill: #94a3b8" />
	<path d="M183.53,19.6A18,18,0,0,0,191,15.17c.52-.52-.48-1-.86-.57a16.3,16.3,0,0,1-6.91,4.19C182.43,19,182.91,19.84,183.53,19.6Z" style="fill: #1a2e44" />
	<path d="M173.09,11.79a42.18,42.18,0,0,0,3.62-8.43Z" style="fill: #94a3b8" />
	<path d="M173.43,12.22a51.73,51.73,0,0,0,3.67-8.53c.19-.52-.58-1.33-.81-.66a51,51,0,0,1-3.53,8.33C172.48,11.84,173.09,12.79,173.43,12.22Z" style="fill: #1a2e44" />
	<path d="M49.69,123.58c-1.47-1-.62-4-.33-5.39a36.15,36.15,0,0,1,2.09-6.28,83.56,83.56,0,0,1,5-10.1c.62-1.1,2.19-4.19,3.81-4a7.53,7.53,0,0,1,1.9,1.1c2.05,1.14,4.1,2.33,6.15,3.48.52.28,1.33-.34.67-.72-2.58-1.43-5-3-7.67-4.33s-4.29,1.43-5.58,3.47a69.33,69.33,0,0,0-6.24,13c-.9,2.48-3.43,8.58-.42,10.53C49.55,124.62,50.31,124,49.69,123.58Z" style="fill: #1a2e44" />
	<path d="M69.7,102.38a2.05,2.05,0,0,0-3.15-.43,11.21,11.21,0,0,0-2.09,2.72c-.38.66.52.9.86.33a11.47,11.47,0,0,1,1.28-1.81,2.89,2.89,0,0,1,.76-.76c.58-.24,1.24.47,1.58.85S70.08,102.86,69.7,102.38Z" style="fill: #1a2e44" />
	<path d="M68.41,102.71s-.62-.52-1-.43-.58.86-.58.86Z" style="fill: #1a2e44" />
	<path d="M65.08,133.72c.09,1.24-.1,2.77,1,3.53s3.24.9,4.52,1.24c1.72.47,3.48.95,5.2,1.52,5.9,2,11.38,4.81,17.62,5.48.34,0,.57-.38.48-.67a18.24,18.24,0,0,1-.38-3.95c0-.57-.81-.19-.81.24a17.53,17.53,0,0,0,.38,4.19c.14-.24.33-.43.47-.67-5.47-.57-10.28-2.9-15.38-4.76-2.53-.91-5.1-1.67-7.67-2.38C68.75,137,66.65,137,66,135a8.68,8.68,0,0,1-.14-1.52C65.84,132.87,65,133.25,65.08,133.72Z" style="fill: #1a2e44" />
	<path d="M137.24,128c-14.38,6-29.1,11.1-43.58,16.81-.57.24-.1.81.43.62,14.48-5.71,29.2-10.76,43.58-16.81C138.2,128.34,137.72,127.77,137.24,128Z" style="fill: #1a2e44" />
	<path d="M155.4,23.71c-15.48-2.87-19.92,17.49-11.83,19.61,12.11,3.18-14.89-35.19-19.75,13.85" style="fill: none;stroke: #1a2e44;stroke-width: 1.600000023841858px;stroke-dasharray: 6,3" />
	<path d="M90.7,141.37l-25.17-7.88.23,3.31,6.35,1.52,4.71,1.53,4.47,2,7.76,2.55,3.53.5v-3.56Z" style="fill: #1a2e44" />
</svg>
