<svg id="visual" viewBox="0 0 900 600" width="900" height="600" xmlns="http://www.w3.org/2000/svg" xmlns:xlink="http://www.w3.org/1999/xlink" version="1.1"><rect x="0" y="0" width="900" height="600" fill="#cbd5e1"></rect><path d="M0 392L25 378.7C50 365.3 100 338.7 150 332.8C200 327 250 342 300 344.5C350 347 400 337 450 337.2C500 337.3 550 347.7 600 345.2C650 342.7 700 327.3 750 320.2C800 313 850 314 875 314.5L900 315L900 601L875 601C850 601 800 601 750 601C700 601 650 601 600 601C550 601 500 601 450 601C400 601 350 601 300 601C250 601 200 601 150 601C100 601 50 601 25 601L0 601Z" fill="#94a3b8" stroke-linecap="round" stroke-linejoin="miter"></path></svg>